<?xml version="1.0" encoding="iso-8859-1"?>
<!-- Generator: Adobe Illustrator 16.0.3, SVG Export Plug-In . SVG Version: 6.00 Build 0)  -->
<!DOCTYPE svg PUBLIC "-//W3C//DTD SVG 1.1//EN" "http://www.w3.org/Graphics/SVG/1.1/DTD/svg11.dtd">
<svg version="1.1" id="Group" xmlns="http://www.w3.org/2000/svg" xmlns:xlink="http://www.w3.org/1999/xlink" x="0px" y="0px"
	 width="24.612px" height="24.613px" viewBox="0 0 24.612 24.613" enable-background="new 0 0 24.612 24.613" xml:space="preserve">
<g>
	<path d="M12.352,24.345c-6.612,0-11.991-5.38-11.991-11.993S5.74,0.358,12.352,0.358s11.992,5.38,11.992,11.993
		S18.964,24.345,12.352,24.345z"/>
	<path d="M12.352,0.627c6.464,0,11.723,5.26,11.723,11.725s-5.259,11.725-11.723,11.725c-6.464,0-11.723-5.26-11.723-11.725
		S5.888,0.627,12.352,0.627 M12.352,0.09c-6.771,0-12.26,5.49-12.26,12.262c0,6.772,5.489,12.262,12.26,12.262
		s12.26-5.489,12.26-12.262C24.612,5.58,19.123,0.09,12.352,0.09L12.352,0.09z"/>
</g>
<g>
	<linearGradient id="SVGID_1_" gradientUnits="userSpaceOnUse" x1="3.6943" y1="3.6963" x2="20.2423" y2="20.2442">
		<stop  offset="0" style="stop-color:#C77D00"/>
		<stop  offset="1" style="stop-color:#955500"/>
	</linearGradient>
	<path fill="url(#SVGID_1_)" d="M11.968,23.678c-6.455,0-11.706-5.252-11.706-11.708c0-6.456,5.251-11.708,11.706-11.708
		c6.454,0,11.706,5.252,11.706,11.708C23.674,18.426,18.422,23.678,11.968,23.678z"/>
	<path fill="#323232" d="M11.968,0.524c6.31,0,11.443,5.134,11.443,11.445c0,6.311-5.134,11.445-11.443,11.445
		c-6.31,0-11.443-5.135-11.443-11.445C0.524,5.659,5.658,0.524,11.968,0.524 M11.968,0C5.358,0,0,5.359,0,11.97
		c0,6.612,5.358,11.97,11.968,11.97s11.968-5.357,11.968-11.97C23.936,5.359,18.577,0,11.968,0L11.968,0z"/>
</g>
<g id="_x23_">
	<rect x="2.617" y="6.072" fill="none" width="18.702" height="11.797"/>
	<path d="M11.746,17.039v-7.57L9.61,10.752V8.96c1.372-0.665,2.457-1.486,3.254-2.466h0.745v10.545H11.746z"/>
</g>
</svg>
