<?xml version="1.0" encoding="iso-8859-1"?>
<!-- Generator: Adobe Illustrator 16.0.3, SVG Export Plug-In . SVG Version: 6.00 Build 0)  -->
<!DOCTYPE svg PUBLIC "-//W3C//DTD SVG 1.1//EN" "http://www.w3.org/Graphics/SVG/1.1/DTD/svg11.dtd">
<svg version="1.1" id="Group" xmlns="http://www.w3.org/2000/svg" xmlns:xlink="http://www.w3.org/1999/xlink" x="0px" y="0px"
	 width="21.737px" height="21.737px" viewBox="0 0 21.737 21.737" enable-background="new 0 0 21.737 21.737" xml:space="preserve">
<g>
	<path d="M10.909,21.5c-5.839,0-10.59-4.752-10.59-10.592c0-5.841,4.751-10.592,10.59-10.592c5.84,0,10.591,4.751,10.591,10.592
		C21.5,16.748,16.749,21.5,10.909,21.5z"/>
	<path d="M10.909,0.553c5.709,0,10.354,4.645,10.354,10.355c0,5.709-4.645,10.355-10.354,10.355S0.556,16.617,0.556,10.908
		C0.556,5.198,5.2,0.553,10.909,0.553 M10.909,0.078c-5.98,0-10.828,4.849-10.828,10.83s4.848,10.83,10.828,10.83
		c5.98,0,10.828-4.849,10.828-10.83S16.89,0.078,10.909,0.078L10.909,0.078z"/>
</g>
<g>
	<linearGradient id="SVGID_1_" gradientUnits="userSpaceOnUse" x1="3.2637" y1="3.2646" x2="17.8774" y2="17.8784">
		<stop  offset="0" style="stop-color:#BFBFBF"/>
		<stop  offset="0.4546" style="stop-color:#898989"/>
		<stop  offset="1" style="stop-color:#4D4D4D"/>
	</linearGradient>
	<path fill="url(#SVGID_1_)" d="M10.57,20.91c-5.701,0-10.339-4.638-10.339-10.339S4.87,0.231,10.57,0.231
		c5.7,0,10.338,4.639,10.338,10.34S16.271,20.91,10.57,20.91z"/>
	<path fill="#323232" d="M10.57,0.463c5.572,0,10.106,4.535,10.106,10.108c0,5.573-4.534,10.107-10.106,10.107
		c-5.573,0-10.107-4.534-10.107-10.107C0.463,4.998,4.997,0.463,10.57,0.463 M10.57,0C4.732,0,0,4.733,0,10.571
		c0,5.839,4.732,10.57,10.57,10.57c5.837,0,10.569-4.731,10.569-10.57C21.14,4.733,16.407,0,10.57,0L10.57,0z"/>
</g>
<g id="_x23_">
	<rect x="2.312" y="5.362" fill="none" width="16.518" height="10.418"/>
	<path d="M6.575,15.048V8.362L4.688,9.495V7.912C5.9,7.326,6.858,6.6,7.563,5.734h0.658v9.313H6.575z"/>
	<path d="M11.045,10.128c0-1.267,0.309-2.336,0.927-3.21c0.618-0.874,1.445-1.311,2.479-1.311c2.157,0,3.235,1.575,3.235,4.724
		c0,1.473-0.291,2.648-0.873,3.526c-0.583,0.878-1.399,1.317-2.45,1.317c-1.132,0-1.967-0.405-2.508-1.216
		C11.315,13.148,11.045,11.872,11.045,10.128z M12.755,10.242c0,1.237,0.12,2.146,0.361,2.729c0.24,0.583,0.639,0.874,1.197,0.874
		c0.604,0,1.031-0.263,1.285-0.788c0.253-0.525,0.38-1.461,0.38-2.808c0-1.253-0.121-2.119-0.364-2.596s-0.641-0.716-1.193-0.716
		C13.31,6.937,12.755,8.039,12.755,10.242z"/>
</g>
</svg>
